<?xml version="1.0" standalone="no"?>
<!DOCTYPE svg PUBLIC "-//W3C//DTD SVG 20010904//EN"
 "http://www.w3.org/TR/2001/REC-SVG-20010904/DTD/svg10.dtd">
<svg version="1.0" xmlns="http://www.w3.org/2000/svg"
 width="1024.000000pt" height="683.000000pt" viewBox="0 0 1024.000000 683.000000"
 preserveAspectRatio="xMidYMid meet">

<g transform="translate(0.000000,683.000000) scale(0.100000,-0.100000)"
fill="#000000" stroke="none">
<path d="M1413 6330 c-40 -24 -45 -41 -107 -370 -26 -135 -80 -416 -120 -625
-41 -209 -77 -404 -80 -432 -6 -48 -5 -53 12 -53 26 0 38 43 121 475 72 369
150 758 177 878 10 44 22 71 34 77 12 6 228 10 578 10 532 0 561 -1 583 -19
l23 -18 -53 -294 c-29 -162 -84 -454 -122 -649 -37 -195 -71 -379 -75 -407 -6
-49 -5 -53 13 -53 15 0 26 13 39 45 l19 46 172 -173 172 -174 -5 -39 c-15
-115 -26 -175 -41 -223 l-16 -53 -177 175 c-179 178 -207 198 -229 158 -14
-26 -32 -110 -96 -442 -192 -1005 -186 -980 -221 -980 -13 0 -24 -2 -24 -4 0
-2 -7 -40 -15 -83 -8 -43 -15 -79 -15 -80 0 -7 47 -2 56 6 5 5 20 11 33 13 19
2 28 13 40 51 l16 48 168 -172 c110 -113 167 -179 167 -193 0 -33 -42 -236
-49 -236 -3 0 -80 74 -171 165 -90 91 -169 164 -174 162 -6 -2 -14 -21 -19
-43 -22 -100 -28 -115 -51 -123 -25 -10 -24 -9 -166 -726 -46 -230 -77 -366
-87 -377 -15 -17 -56 -18 -594 -18 -562 0 -579 1 -589 19 -5 11 -10 31 -10 45
0 14 40 236 89 493 106 561 107 566 83 561 -23 -4 -39 -75 -148 -619 -63 -320
-85 -446 -80 -473 6 -30 40 -71 187 -223 210 -217 400 -399 461 -441 112 -77
182 -85 718 -79 303 3 427 8 459 17 63 19 133 90 159 161 11 31 36 130 55 221
41 193 71 262 122 284 58 24 89 4 281 -176 253 -238 308 -286 409 -352 243
-162 503 -245 843 -269 560 -40 1029 107 1343 420 106 107 188 224 251 357 56
120 83 161 121 184 59 36 68 31 236 -133 269 -261 472 -445 566 -512 409 -292
936 -385 1446 -256 210 53 430 148 599 260 141 92 193 163 192 258 -1 73 -11
100 -129 336 -131 263 -194 376 -249 452 -51 68 -310 333 -503 514 -104 98
-131 119 -126 98 6 -21 4 -27 -9 -27 -9 0 -16 -3 -16 -7 0 -4 84 -173 186
-376 160 -319 185 -373 176 -392 -20 -44 -290 -218 -446 -287 -258 -114 -503
-167 -775 -168 -637 -1 -1158 306 -1415 833 -35 72 -83 192 -106 265 -43 135
-47 142 -94 133 -5 -1 -48 37 -96 84 -47 47 -89 82 -93 79 -4 -4 -7 -41 -7
-82 0 -65 -2 -74 -20 -79 -14 -4 -20 -14 -20 -32 0 -54 -33 -218 -61 -308
-126 -395 -388 -663 -784 -803 -357 -125 -887 -131 -1270 -15 -261 80 -497
239 -633 427 -60 82 -112 181 -112 211 0 21 44 74 206 246 113 120 213 229
221 241 15 21 14 23 -2 32 -15 9 -13 15 24 52 l41 42 44 215 c44 218 77 324
108 343 15 9 69 -41 370 -343 194 -195 384 -380 421 -413 81 -70 78 -73 -66
-65 -115 6 -182 22 -293 69 -67 28 -92 47 -192 143 -113 108 -136 109 -42 3
39 -45 40 -48 18 -48 -21 -1 -18 -5 22 -41 55 -48 192 -120 280 -147 204 -62
484 -51 564 23 54 50 18 164 -50 165 -12 0 -44 18 -70 40 -40 33 -242 147
-224 127 3 -3 67 -69 144 -147 76 -77 136 -143 133 -146 -7 -8 -180 89 -302
169 -75 48 -136 102 -245 212 -144 146 -145 147 -90 120 51 -26 105 -37 245
-51 50 -5 50 -5 26 13 -13 10 -75 48 -138 86 -79 46 -124 67 -147 67 -66 0
-247 150 -360 298 -138 180 -204 429 -177 666 17 150 45 245 125 429 16 36 16
38 -3 45 -20 7 -20 9 8 57 48 83 128 165 160 165 18 0 52 18 93 49 253 192
479 283 802 326 147 19 338 19 486 1 299 -38 533 -132 733 -294 100 -82 103
-84 129 -80 21 4 16 12 -53 79 -259 256 -698 391 -1174 359 -286 -19 -439 -59
-694 -182 -79 -38 -146 -67 -148 -64 -3 3 11 90 31 193 37 193 45 306 26 375
-6 20 -29 64 -52 98 -44 66 -559 589 -612 621 -29 18 -60 19 -616 19 -563 0
-586 -1 -617 -20z"/>
<path d="M7375 5283 c-27 -2 -99 -10 -159 -18 -312 -43 -672 -186 -906 -361
-62 -47 -64 -49 -37 -52 20 -2 57 14 130 58 372 223 718 321 1137 321 410 0
659 -79 987 -315 56 -40 102 -66 118 -66 14 0 25 4 25 8 0 14 -104 99 -205
167 -151 102 -349 190 -510 225 -148 33 -387 46 -580 33z"/>
<path d="M1057 4623 c-19 -31 -280 -1366 -301 -1535 -5 -46 -5 -48 19 -48 14
0 25 -4 25 -10 0 -5 9 -10 20 -10 21 0 36 39 47 123 5 42 4 47 -14 47 -18 0
-19 4 -12 58 11 78 61 343 163 862 78 399 90 472 87 508 -1 13 -27 17 -34 5z"/>
<path d="M5435 4618 c-2 -7 -5 -25 -7 -40 -2 -22 -70 -85 -348 -323 -190 -163
-356 -298 -368 -302 -20 -5 -37 8 -107 79 -97 100 -163 141 -271 168 -93 24
-268 29 -357 11 -97 -21 -141 -78 -107 -141 17 -31 138 -105 367 -224 120 -62
260 -139 312 -171 195 -121 372 -284 454 -418 36 -59 37 -62 17 -67 -20 -5
-19 -8 19 -87 31 -64 45 -83 61 -83 11 0 20 4 20 9 0 5 12 11 28 13 28 3 29 5
18 53 -7 25 9 14 106 -80 l113 -110 3 48 c3 41 -1 52 -31 90 -49 59 -79 121
-75 153 2 21 14 33 48 51 41 22 45 22 51 6 4 -10 7 -58 8 -107 2 -99 4 -106
32 -106 10 0 19 -4 19 -10 0 -5 11 -10 25 -10 25 0 25 1 25 85 0 80 -1 85 -22
85 -21 0 -21 2 -15 108 19 324 147 706 326 980 32 48 103 144 159 214 56 69
102 129 102 132 0 3 -11 6 -24 6 -18 0 -49 -26 -117 -100 -52 -55 -98 -100
-103 -100 -5 0 -21 10 -35 23 l-25 22 22 -32 c26 -37 28 -61 6 -70 -11 -4 -56
34 -148 126 -128 127 -169 153 -181 119z"/>
<path d="M8570 4373 c-327 -324 -485 -473 -505 -473 -9 0 -50 35 -93 78 -141
141 -269 192 -487 192 -291 0 -568 -153 -745 -410 -82 -120 -140 -277 -169
-454 -13 -86 -21 -112 -34 -114 -25 -5 -30 -38 -17 -108 11 -57 15 -64 36 -64
13 0 24 4 24 9 0 5 10 11 23 13 18 2 23 11 27 48 l5 44 167 -168 167 -167 10
-72 c6 -40 14 -82 17 -94 14 -52 -32 -20 -174 120 -66 64 -122 117 -125 117
-12 0 17 -63 49 -112 39 -57 39 -58 19 -58 -27 0 -16 -17 38 -58 117 -89 228
-124 397 -124 72 1 130 7 185 21 90 23 225 87 276 131 l34 29 -28 1 c-15 0
-45 -11 -67 -25 -75 -47 -216 -94 -284 -95 l-29 0 6 63 c8 86 50 226 97 324
80 165 236 320 405 402 123 60 189 75 345 75 121 0 143 -2 206 -25 39 -14 114
-54 168 -89 218 -141 261 -130 542 140 364 349 414 410 414 508 0 77 -36 140
-143 249 -81 83 -91 91 -103 75 -12 -15 -31 1 -186 156 -118 117 -180 171
-193 170 -11 -1 -131 -111 -275 -255z"/>
<path d="M951 3212 c-5 -9 -28 -114 -51 -232 -23 -118 -50 -259 -61 -314 -10
-54 -19 -112 -19 -130 l0 -31 478 1 c262 1 480 2 484 3 3 0 11 16 17 34 15 43
131 635 131 665 l0 22 -485 0 c-451 0 -485 -1 -494 -18z"/>
<path d="M3479 3200 c19 -16 118 -75 220 -131 229 -126 308 -179 388 -259 79
-80 96 -115 103 -220 l5 -85 405 0 c474 -1 443 -8 455 110 23 214 -32 437
-142 573 l-34 42 -717 0 -717 -1 34 -29z"/>
<path d="M5560 3204 c-30 -77 3 -398 61 -595 33 -113 -20 -104 595 -104 294 0
534 2 534 4 0 2 -35 41 -78 86 -124 130 -199 311 -217 516 -3 41 -8 84 -11 97
l-4 22 -435 0 -435 0 -10 -26z"/>
<path d="M2872 2618 c-45 -50 -81 -96 -79 -102 4 -11 377 -18 377 -7 0 7 -201
201 -208 201 -4 0 -44 -41 -90 -92z"/>
<path d="M7726 2559 c-25 -22 -46 -44 -46 -48 0 -3 30 -6 68 -6 65 0 67 1 70
27 4 32 -13 68 -32 68 -7 0 -34 -18 -60 -41z"/>
<path d="M741 2118 c-6 -18 -26 -103 -46 -188 -19 -85 -40 -173 -45 -195 -5
-22 -6 -43 -1 -48 4 -4 230 -6 502 -5 l494 3 32 190 c18 105 32 209 32 233 l1
42 -479 0 -479 0 -11 -32z"/>
<path d="M2482 2123 c50 -113 175 -249 312 -338 208 -136 451 -208 754 -224
406 -21 740 51 992 214 101 65 193 147 252 227 46 61 88 131 88 145 0 1 -542
3 -1205 3 l-1205 0 12 -27z"/>
<path d="M5882 2109 c28 -50 177 -203 252 -258 459 -339 1103 -380 1650 -105
114 58 288 168 320 203 18 20 18 21 -24 93 -24 40 -50 81 -58 91 -14 16 -79
17 -1089 17 l-1074 0 23 -41z"/>
</g>
</svg>
